<?xml version="1.0" encoding="utf-8"?>
<!-- Generator: Adobe Illustrator 23.0.0, SVG Export Plug-In . SVG Version: 6.00 Build 0)  -->
<svg version="1.1" id="Ebene_1" xmlns="http://www.w3.org/2000/svg" xmlns:xlink="http://www.w3.org/1999/xlink" x="0px" y="0px"
	 viewBox="0 0 343 56.7" style="enable-background:new 0 0 343 56.7;" xml:space="preserve">
<style type="text/css">
	.st0{fill-rule:evenodd;clip-rule:evenodd;fill:#E3000B;}
	.st1{fill-rule:evenodd;clip-rule:evenodd;fill:#131413;}
	.st2{fill:none;}
	.st3{filter:url(#Adobe_OpacityMaskFilter);}
	.st4{fill-rule:evenodd;clip-rule:evenodd;fill:#FFFFFF;}
	.st5{mask:url(#mask-14_1_);}
	.st6{fill-rule:evenodd;clip-rule:evenodd;fill:#FEFEFE;}
</style>
<g>
	<path class="st0" d="M0,56.7h161.6V0H0V56.7z"/>
	<g>
		<path class="st1" d="M175.8,25.7c2.3,0,3.9-1.2,4.9-3.3v3h1.7v-9h-6.1v1.8h4.4c-0.1,4-2.4,5.7-4.6,5.7c-2.8,0-5-2.8-5-7.3
			c0-4.5,2.3-7.3,5-7.3c2.2,0,3.8,1.7,4.3,4.4h1.9c-0.4-3.7-2.8-6.2-6.1-6.2c-4.1,0-6.9,3.6-6.9,9.1C169.1,22,172,25.7,175.8,25.7"
			/>
		<path class="st1" d="M197.4,23.6h-8.5v-6.3h7.6v-1.8h-7.6V9.6h8.4V7.8h-10.2v17.6h10.3V23.6z"/>
		<path class="st1" d="M209,23.2l-4.9-15.4h-2.8v17.6h1.7V10.1l4.8,15.2h2.2l4.8-15.2v15.2h1.7V7.8h-2.7L209,23.2L209,23.2z"/>
		<path class="st1" d="M227.5,17.8h-4v7.5h-1.8V7.8h6c3.2,0,5.2,1.8,5.2,5.1c0,2.7-1.4,4.2-3.4,4.8l4.1,7.8h-2.1L227.5,17.8z
			 M227.7,9.6h-4.3v6.5h4.3c2.2,0,3.3-1.1,3.3-3.3S229.8,9.6,227.7,9.6z"/>
		<path class="st1" d="M239,17.2h7.6v-1.8H239V9.6h8.4V7.8h-10.2v17.6h10.3v-1.8H239V17.2z"/>
		<path class="st1" d="M258.5,16.2l-3.4-1.1c-1.3-0.5-2.2-1.5-2.2-2.8c0-1.7,1.4-3,3.3-3c1.9,0,3.4,1.1,3.5,3.5h1.8
			c0-3.2-2.3-5.2-5.4-5.2c-3,0-5.1,2-5.1,4.8c0,2.4,1.5,3.9,3.5,4.5l3.4,1.1c1.3,0.5,2.2,1.5,2.2,2.8c0,1.8-1.5,3.1-3.7,3.1
			c-2.3,0-3.9-1.4-4-3.7h-1.9c0.2,3.5,2.5,5.4,5.9,5.4c3.5,0,5.5-2.2,5.5-4.9C262,18.3,260.6,16.9,258.5,16.2"/>
		<path class="st1" d="M268.1,17.2h7.6v-1.8h-7.6V9.6h8.4V7.8h-10.2v17.6h10.3v-1.8h-8.5V17.2z"/>
		<path class="st1" d="M287.3,7.8l5.8,17.6h-1.9l-1.7-5.1h-6.6l-1.6,5.1h-1.9l5.7-17.6H287.3z M286.2,10l-2.8,8.5h5.5L286.2,10z"/>
		<path class="st1" d="M307.6,12.9c0,2.7-1.4,4.2-3.4,4.8l4.1,7.8h-2.1l-3.9-7.5h-4v7.5h-1.8V7.8h6C305.6,7.8,307.6,9.6,307.6,12.9z
			 M298.2,9.6v6.5h4.3c2.2,0,3.3-1.1,3.3-3.3s-1.1-3.2-3.3-3.2H298.2z"/>
		<path class="st1" d="M318.1,9.3c2.2,0,3.8,1.7,4.3,4.4h1.9c-0.4-3.7-2.8-6.2-6.1-6.2c-4.1,0-6.9,3.6-6.9,9.1s2.8,9.1,6.9,9.1
			c3.4,0,5.7-2.5,6.1-6.2h-1.9c-0.4,2.7-2.1,4.4-4.3,4.4c-2.8,0-5-2.8-5-7.3S315.3,9.3,318.1,9.3"/>
		<path class="st1" d="M338.3,7.8v7.5h-8.1V7.8h-1.8v17.6h1.8v-8.3h8.1v8.3h1.8V7.8H338.3z"/>
		<g>
			<path class="st2" d="M0,56.7h340.2V0H0V56.7z"/>
		</g>
		<defs>
			<filter id="Adobe_OpacityMaskFilter" filterUnits="userSpaceOnUse" x="2.8" y="7" width="315.6" height="42.6">
				<feColorMatrix  type="matrix" values="1 0 0 0 0  0 1 0 0 0  0 0 1 0 0  0 0 0 1 0"/>
			</filter>
		</defs>
		<mask maskUnits="userSpaceOnUse" x="2.8" y="7" width="315.6" height="42.6" id="mask-14_1_">
			<rect y="0" class="st3" width="340.2" height="56.7"/>
			<g>
				<path id="path-13_1_" class="st4" d="M0,56.7h340.2V0H0V56.7z"/>
			</g>
		</mask>
		<g class="st5">
			<path class="st1" d="M241.3,48.7h1.8V31.1h-1.8V48.7z"/>
			<path class="st1" d="M255.4,39.5l-3.4-1.1c-1.3-0.5-2.2-1.5-2.2-2.8c0-1.7,1.4-3,3.3-3c1.9,0,3.4,1.1,3.5,3.5h1.8
				c0-3.2-2.3-5.2-5.4-5.2c-3,0-5.1,2-5.1,4.8c0,2.4,1.5,3.9,3.5,4.5l3.4,1.1c1.3,0.5,2.2,1.5,2.2,2.8c0,1.8-1.5,3.1-3.7,3.1
				c-2.3,0-3.9-1.4-4-3.7h-1.9c0.2,3.5,2.5,5.4,5.9,5.4c3.5,0,5.5-2.2,5.5-4.9C258.9,41.7,257.5,40.2,255.4,39.5"/>
			<path class="st1" d="M270.4,39.5l-3.4-1.1c-1.3-0.5-2.2-1.5-2.2-2.8c0-1.7,1.4-3,3.3-3c1.9,0,3.4,1.1,3.5,3.5h1.8
				c0-3.2-2.3-5.2-5.4-5.2c-3,0-5.1,2-5.1,4.8c0,2.4,1.5,3.9,3.5,4.5l3.4,1.1c1.3,0.5,2.2,1.5,2.2,2.8c0,1.8-1.5,3.1-3.7,3.1
				c-2.3,0-3.9-1.4-4-3.7h-1.9c0.2,3.5,2.5,5.4,5.9,5.4c3.5,0,5.5-2.2,5.5-4.9C273.8,41.7,272.4,40.2,270.4,39.5"/>
			<path class="st1" d="M280.4,31.1h-1.8v17.6h9.5v-1.8h-7.7C280.4,46.9,280.4,31.1,280.4,31.1z"/>
			<path class="st1" d="M290,48.7l5.7-17.6h2.2l5.8,17.6h-1.9l-1.7-5.1h-6.6l-1.6,5.1H290z M296.8,33.4l-2.8,8.5h5.5L296.8,33.4z"/>
			<path class="st1" d="M317.7,35.9c0,1.6-0.9,3.1-2.1,3.7c1.4,0.3,2.8,1.8,2.8,4.2c0,3-1.8,5-5.4,5h-6V31.1h5.7
				C315.9,31.1,317.7,32.8,317.7,35.9z M308.9,32.9h4c1.9,0,2.9,1,2.9,3c0,2-1,2.9-2.9,2.9h-4V32.9z M313.4,46.9h-4.5v-6.4h4.5
				c2.1,0,3.2,1,3.2,3.2C316.6,45.9,315.5,46.9,313.4,46.9z"/>
			<path class="st1" d="M232.2,46.6l-3.5-15.4h-2.4l-3.5,15.4l-3.5-15.4h-1.8l4,17.6h2.4l3.5-15.6l3.5,15.6h2.4l4-17.6h-1.8
				L232.2,46.6L232.2,46.6z"/>
			<path class="st1" d="M211.3,39.5l-3.4-1.1c-1.3-0.5-2.2-1.5-2.2-2.8c0-1.7,1.4-3,3.4-3c1.9,0,3.4,1.1,3.5,3.5h1.8
				c0-3.2-2.3-5.2-5.4-5.2c-3,0-5.1,2-5.1,4.8c0,2.4,1.5,3.9,3.5,4.5l3.4,1.1c1.3,0.5,2.2,1.5,2.2,2.8c0,1.8-1.5,3.1-3.7,3.1
				c-2.3,0-3.9-1.4-4-3.7h-1.9c0.2,3.5,2.5,5.4,5.9,5.4c3.5,0,5.5-2.2,5.5-4.9C214.8,41.7,213.4,40.2,211.3,39.5"/>
			<path class="st1" d="M169.1,36.1l6.2-4.8h17.5l6.2,4.8l-15,13.3L169.1,36.1z M182.9,32.1l-4.8,3.6l-2.3-3.6H182.9z M192.3,32.1
				l-2.4,3.6l-4.7-3.6H192.3z M179.2,35.8h9.7l-4.8-3.7L179.2,35.8z M177.5,35.8l-2.3-3.4l-4.5,3.4H177.5z M197.4,35.8h-6.7l2.3-3.4
				L197.4,35.8z M178.5,36.5l5.6,11.5l5.5-11.5H178.5z M170.8,36.6h7l5.2,10.8L170.8,36.6z M185.2,47.4l5.2-10.8h7L185.2,47.4z"/>
			<path class="st6" d="M17,7.7H2.8V49H17V36h17.5V20.7H17V7.7z"/>
			<path class="st6" d="M68.1,33.3h8.2c-0.6,5.6-4,9.3-8.7,9.3c-5.8,0-9.7-5.7-9.7-14.3c0-8.5,3.8-14.2,9.5-14.2c2,0,3.8,0.7,5.2,2
				c1.4,1.3,2.4,3.3,2.7,5.6l0,0.1h8.2l0-0.1C82.7,12.8,76.3,7,67.4,7c-10.5,0-17.6,8.6-17.6,21.3c0,12.5,6.7,21.3,16.2,21.3
				c4.7,0,8.5-2.2,10.9-6.3v5.6h6.8V26.5H68.1C68.1,26.5,68.1,33.3,68.1,33.3z"/>
			<path class="st6" d="M107.1,7.8c8.6,0,13.3,4.4,13.3,12.4c0,5.5-2.5,9.8-6.8,11.5l8.3,17.2h-8.4l0-0.1L106,33.3h-7v15.6h-7.7V7.8
				H107.1z M99,26.5h7.3c4,0,6.1-2,6.1-5.9c0-4-2.2-6.2-6.1-6.2H99V26.5z"/>
			<path class="st6" d="M145,25.5l-6.7-2c-3.2-1-4.7-2.6-4.7-4.9c0-2.8,2.5-4.7,6.2-4.7c4,0,6.4,2.2,6.6,6.3l0,0.1h7.8l0-0.1
				c-0.1-3.9-1.5-7.2-4.1-9.6c-2.5-2.3-6.1-3.6-10.3-3.6c-4.2,0-7.7,1.2-10.2,3.6c-2.4,2.2-3.6,5.3-3.6,8.7c0,7.1,5.3,10.2,9.7,11.4
				l6.7,2c3.1,1,4.7,2.6,4.7,4.9c0,3.1-2.7,5.1-6.8,5.1c-4.4,0-7.1-2.5-7.5-7l0-0.1h-7.8l0,0.1c0.5,8.8,6.1,13.9,15.3,13.9
				c8.7,0,14.5-5.1,14.5-12.7C154.7,33,153,27.8,145,25.5"/>
		</g>
	</g>
</g>
</svg>
